# xmcd CD database file
#
# Track frame offsets:
#	150
#	15280
#	40099
#	74463
#	105597
#	118087
#	140657
#	171983
#	200658
#	219884
#	245324
#
# Disc length: 3474 seconds
#
# Revision: 0
# Processed by: cddbd v1.5.1PL0 Copyright (c) Steve Scherf et al.
# Submitted via: CDex 1.51
#
DISCID=980d900b
DTITLE=Eldar - Eldar
DYEAR=2005
DGENRE=Jazz
TTITLE0=Sweet Georgia Brown
TTITLE1=Nature Boy
TTITLE2=Moanin'
TTITLE3=Point of View with Michael Brecker
TTITLE4=Raindrops
TTITLE5=Lady Wicks
TTITLE6=Maiden Voyage
TTITLE7='Round Midnight
TTITLE8=Ask Me Now
TTITLE9=Watermelon Island
TTITLE10=Fly Me to the Moon
EXTD=YEAR: 2005
EXTT0=
EXTT1=
EXTT2=
EXTT3=
EXTT4=
EXTT5=
EXTT6=
EXTT7=
EXTT8=
EXTT9=
EXTT10=
PLAYORDER=
